<mxfile host="app.diagrams.net" agent="Mozilla/5.0 (Windows NT 10.0; Win64; x64) AppleWebKit/537.36 (KHTML, like Gecko) Chrome/135.0.0.0 Safari/537.36" version="26.3.0">
  <diagram id="C5RBs43oDa-KdzZeNtuy" name="Page-1">
    <mxGraphModel dx="3987" dy="1631" grid="1" gridSize="10" guides="1" tooltips="1" connect="1" arrows="1" fold="1" page="1" pageScale="1" pageWidth="827" pageHeight="1169" math="0" shadow="0">
      <root>
        <mxCell id="WIyWlLk6GJQsqaUBKTNV-0" />
        <mxCell id="WIyWlLk6GJQsqaUBKTNV-1" parent="WIyWlLk6GJQsqaUBKTNV-0" />
        <mxCell id="bAVuv0y_ngJYr-Cw_Y14-59" style="edgeStyle=orthogonalEdgeStyle;rounded=0;orthogonalLoop=1;jettySize=auto;html=1;exitX=1;exitY=0.5;exitDx=0;exitDy=0;" edge="1" parent="WIyWlLk6GJQsqaUBKTNV-1" source="WIyWlLk6GJQsqaUBKTNV-6">
          <mxGeometry relative="1" as="geometry">
            <mxPoint x="350" y="200" as="targetPoint" />
          </mxGeometry>
        </mxCell>
        <mxCell id="WIyWlLk6GJQsqaUBKTNV-6" value="Main Branch" style="rhombus;whiteSpace=wrap;html=1;shadow=0;fontFamily=Helvetica;fontSize=12;align=center;strokeWidth=1;spacing=6;spacingTop=-4;fillColor=#1ba1e2;strokeColor=#006EAF;fontColor=#ffffff;" parent="WIyWlLk6GJQsqaUBKTNV-1" vertex="1">
          <mxGeometry x="-130" y="117.5" width="220" height="165" as="geometry" />
        </mxCell>
        <mxCell id="bAVuv0y_ngJYr-Cw_Y14-60" style="edgeStyle=orthogonalEdgeStyle;rounded=0;orthogonalLoop=1;jettySize=auto;html=1;exitX=1;exitY=0.5;exitDx=0;exitDy=0;entryX=0;entryY=0.5;entryDx=0;entryDy=0;" edge="1" parent="WIyWlLk6GJQsqaUBKTNV-1" source="WIyWlLk6GJQsqaUBKTNV-7" target="bAVuv0y_ngJYr-Cw_Y14-14">
          <mxGeometry relative="1" as="geometry" />
        </mxCell>
        <mxCell id="bAVuv0y_ngJYr-Cw_Y14-61" style="edgeStyle=orthogonalEdgeStyle;rounded=0;orthogonalLoop=1;jettySize=auto;html=1;exitX=1;exitY=0.5;exitDx=0;exitDy=0;entryX=0;entryY=0.5;entryDx=0;entryDy=0;" edge="1" parent="WIyWlLk6GJQsqaUBKTNV-1" source="WIyWlLk6GJQsqaUBKTNV-7" target="bAVuv0y_ngJYr-Cw_Y14-16">
          <mxGeometry relative="1" as="geometry" />
        </mxCell>
        <mxCell id="bAVuv0y_ngJYr-Cw_Y14-62" style="edgeStyle=orthogonalEdgeStyle;rounded=0;orthogonalLoop=1;jettySize=auto;html=1;exitX=1;exitY=0.5;exitDx=0;exitDy=0;entryX=0;entryY=0.5;entryDx=0;entryDy=0;" edge="1" parent="WIyWlLk6GJQsqaUBKTNV-1" source="WIyWlLk6GJQsqaUBKTNV-7" target="WIyWlLk6GJQsqaUBKTNV-11">
          <mxGeometry relative="1" as="geometry" />
        </mxCell>
        <mxCell id="bAVuv0y_ngJYr-Cw_Y14-77" style="edgeStyle=orthogonalEdgeStyle;rounded=0;orthogonalLoop=1;jettySize=auto;html=1;exitX=0.5;exitY=1;exitDx=0;exitDy=0;" edge="1" parent="WIyWlLk6GJQsqaUBKTNV-1" source="WIyWlLk6GJQsqaUBKTNV-7">
          <mxGeometry relative="1" as="geometry">
            <mxPoint x="490.14285714285734" y="300" as="targetPoint" />
          </mxGeometry>
        </mxCell>
        <mxCell id="WIyWlLk6GJQsqaUBKTNV-7" value="Dev Branch (1)" style="rounded=1;whiteSpace=wrap;html=1;fontSize=12;glass=0;strokeWidth=1;shadow=0;fillColor=#fa6800;strokeColor=#C73500;fontColor=#000000;" parent="WIyWlLk6GJQsqaUBKTNV-1" vertex="1">
          <mxGeometry x="365" y="166.87" width="250" height="68.75" as="geometry" />
        </mxCell>
        <mxCell id="bAVuv0y_ngJYr-Cw_Y14-63" style="edgeStyle=orthogonalEdgeStyle;rounded=0;orthogonalLoop=1;jettySize=auto;html=1;exitX=1;exitY=0.5;exitDx=0;exitDy=0;entryX=0;entryY=0.5;entryDx=0;entryDy=0;" edge="1" parent="WIyWlLk6GJQsqaUBKTNV-1" source="WIyWlLk6GJQsqaUBKTNV-11" target="bAVuv0y_ngJYr-Cw_Y14-55">
          <mxGeometry relative="1" as="geometry" />
        </mxCell>
        <mxCell id="WIyWlLk6GJQsqaUBKTNV-11" value="Feature &quot;A&quot; Branch&amp;nbsp; (2)" style="rounded=1;whiteSpace=wrap;html=1;fontSize=12;glass=0;strokeWidth=1;shadow=0;fillColor=#ffe6cc;strokeColor=#d79b00;" parent="WIyWlLk6GJQsqaUBKTNV-1" vertex="1">
          <mxGeometry x="680" y="80" width="230" height="68.75" as="geometry" />
        </mxCell>
        <mxCell id="bAVuv0y_ngJYr-Cw_Y14-78" style="edgeStyle=orthogonalEdgeStyle;rounded=0;orthogonalLoop=1;jettySize=auto;html=1;exitX=0.5;exitY=1;exitDx=0;exitDy=0;" edge="1" parent="WIyWlLk6GJQsqaUBKTNV-1" source="bAVuv0y_ngJYr-Cw_Y14-2">
          <mxGeometry relative="1" as="geometry">
            <mxPoint x="490.14285714285734" y="460" as="targetPoint" />
          </mxGeometry>
        </mxCell>
        <mxCell id="bAVuv0y_ngJYr-Cw_Y14-81" value="YES" style="edgeLabel;html=1;align=center;verticalAlign=middle;resizable=0;points=[];" vertex="1" connectable="0" parent="bAVuv0y_ngJYr-Cw_Y14-78">
          <mxGeometry x="0.2637" y="-2" relative="1" as="geometry">
            <mxPoint as="offset" />
          </mxGeometry>
        </mxCell>
        <mxCell id="bAVuv0y_ngJYr-Cw_Y14-2" value="Is the code tested?" style="ellipse;whiteSpace=wrap;html=1;rounded=1;glass=0;strokeWidth=1;shadow=0;fillColor=#e51400;fontColor=#ffffff;strokeColor=#B20000;" vertex="1" parent="WIyWlLk6GJQsqaUBKTNV-1">
          <mxGeometry x="450" y="310" width="80" height="80" as="geometry" />
        </mxCell>
        <mxCell id="bAVuv0y_ngJYr-Cw_Y14-84" style="edgeStyle=orthogonalEdgeStyle;rounded=0;orthogonalLoop=1;jettySize=auto;html=1;exitX=0.5;exitY=1;exitDx=0;exitDy=0;" edge="1" parent="WIyWlLk6GJQsqaUBKTNV-1" source="bAVuv0y_ngJYr-Cw_Y14-4" target="bAVuv0y_ngJYr-Cw_Y14-58">
          <mxGeometry relative="1" as="geometry" />
        </mxCell>
        <mxCell id="bAVuv0y_ngJYr-Cw_Y14-85" value="NO" style="edgeLabel;html=1;align=center;verticalAlign=middle;resizable=0;points=[];" vertex="1" connectable="0" parent="bAVuv0y_ngJYr-Cw_Y14-84">
          <mxGeometry x="-0.1761" y="-2" relative="1" as="geometry">
            <mxPoint x="-1" as="offset" />
          </mxGeometry>
        </mxCell>
        <mxCell id="bAVuv0y_ngJYr-Cw_Y14-4" value="Does it work?&lt;div&gt;Are there any bugs?&lt;/div&gt;" style="ellipse;whiteSpace=wrap;html=1;rounded=1;glass=0;strokeWidth=1;shadow=0;fillColor=#e51400;fontColor=#ffffff;strokeColor=#B20000;" vertex="1" parent="WIyWlLk6GJQsqaUBKTNV-1">
          <mxGeometry x="450" y="470" width="80" height="80" as="geometry" />
        </mxCell>
        <mxCell id="bAVuv0y_ngJYr-Cw_Y14-65" style="edgeStyle=orthogonalEdgeStyle;rounded=0;orthogonalLoop=1;jettySize=auto;html=1;exitX=1;exitY=0.5;exitDx=0;exitDy=0;" edge="1" parent="WIyWlLk6GJQsqaUBKTNV-1" source="bAVuv0y_ngJYr-Cw_Y14-14">
          <mxGeometry relative="1" as="geometry">
            <mxPoint x="1180" y="201.28571428571433" as="targetPoint" />
          </mxGeometry>
        </mxCell>
        <mxCell id="bAVuv0y_ngJYr-Cw_Y14-14" value="Feature &quot;B&quot; Branch&amp;nbsp; (3)" style="rounded=1;whiteSpace=wrap;html=1;fontSize=12;glass=0;strokeWidth=1;shadow=0;fillColor=#ffe6cc;strokeColor=#d79b00;" vertex="1" parent="WIyWlLk6GJQsqaUBKTNV-1">
          <mxGeometry x="680" y="166.87" width="230" height="68.75" as="geometry" />
        </mxCell>
        <mxCell id="bAVuv0y_ngJYr-Cw_Y14-66" style="edgeStyle=orthogonalEdgeStyle;rounded=0;orthogonalLoop=1;jettySize=auto;html=1;exitX=1;exitY=0.5;exitDx=0;exitDy=0;entryX=0;entryY=0.5;entryDx=0;entryDy=0;" edge="1" parent="WIyWlLk6GJQsqaUBKTNV-1" source="bAVuv0y_ngJYr-Cw_Y14-16" target="bAVuv0y_ngJYr-Cw_Y14-55">
          <mxGeometry relative="1" as="geometry" />
        </mxCell>
        <mxCell id="bAVuv0y_ngJYr-Cw_Y14-16" value="Feature &quot;C&quot; Branch&amp;nbsp; (4)" style="rounded=1;whiteSpace=wrap;html=1;fontSize=12;glass=0;strokeWidth=1;shadow=0;fillColor=#ffe6cc;strokeColor=#d79b00;" vertex="1" parent="WIyWlLk6GJQsqaUBKTNV-1">
          <mxGeometry x="680" y="251.25" width="230" height="68.75" as="geometry" />
        </mxCell>
        <mxCell id="bAVuv0y_ngJYr-Cw_Y14-68" style="edgeStyle=orthogonalEdgeStyle;rounded=0;orthogonalLoop=1;jettySize=auto;html=1;exitX=1;exitY=0.5;exitDx=0;exitDy=0;" edge="1" parent="WIyWlLk6GJQsqaUBKTNV-1" source="bAVuv0y_ngJYr-Cw_Y14-23">
          <mxGeometry relative="1" as="geometry">
            <mxPoint x="1750" y="196.8571428571429" as="targetPoint" />
          </mxGeometry>
        </mxCell>
        <mxCell id="bAVuv0y_ngJYr-Cw_Y14-23" value="&lt;span style=&quot;white-space: pre;&quot;&gt;&#x9;&lt;/span&gt;Commit" style="triangle;whiteSpace=wrap;html=1;fillColor=#6d8764;fontColor=#ffffff;strokeColor=#3A5431;align=left;" vertex="1" parent="WIyWlLk6GJQsqaUBKTNV-1">
          <mxGeometry x="1463" y="108.75" width="210" height="177.5" as="geometry" />
        </mxCell>
        <mxCell id="bAVuv0y_ngJYr-Cw_Y14-69" style="edgeStyle=orthogonalEdgeStyle;rounded=0;orthogonalLoop=1;jettySize=auto;html=1;exitX=1;exitY=0.5;exitDx=0;exitDy=0;entryX=0;entryY=0.5;entryDx=0;entryDy=0;" edge="1" parent="WIyWlLk6GJQsqaUBKTNV-1" source="bAVuv0y_ngJYr-Cw_Y14-26" target="bAVuv0y_ngJYr-Cw_Y14-34">
          <mxGeometry relative="1" as="geometry" />
        </mxCell>
        <mxCell id="bAVuv0y_ngJYr-Cw_Y14-70" value="YES" style="edgeLabel;html=1;align=center;verticalAlign=middle;resizable=0;points=[];" vertex="1" connectable="0" parent="bAVuv0y_ngJYr-Cw_Y14-69">
          <mxGeometry x="0.0008" y="-3" relative="1" as="geometry">
            <mxPoint as="offset" />
          </mxGeometry>
        </mxCell>
        <mxCell id="bAVuv0y_ngJYr-Cw_Y14-26" value="Are you satisfied with the code?" style="ellipse;whiteSpace=wrap;html=1;aspect=fixed;fillColor=#e51400;fontColor=#ffffff;strokeColor=#B20000;" vertex="1" parent="WIyWlLk6GJQsqaUBKTNV-1">
          <mxGeometry x="1753" y="161.25" width="80" height="80" as="geometry" />
        </mxCell>
        <mxCell id="bAVuv0y_ngJYr-Cw_Y14-71" style="edgeStyle=orthogonalEdgeStyle;rounded=0;orthogonalLoop=1;jettySize=auto;html=1;exitX=1;exitY=0.5;exitDx=0;exitDy=0;entryX=0;entryY=0.5;entryDx=0;entryDy=0;" edge="1" parent="WIyWlLk6GJQsqaUBKTNV-1" source="bAVuv0y_ngJYr-Cw_Y14-34" target="bAVuv0y_ngJYr-Cw_Y14-39">
          <mxGeometry relative="1" as="geometry" />
        </mxCell>
        <mxCell id="bAVuv0y_ngJYr-Cw_Y14-34" value="&lt;span style=&quot;white-space: pre;&quot;&gt;&#x9;&lt;/span&gt;Push&amp;nbsp;&lt;div&gt;&lt;span style=&quot;white-space: pre;&quot;&gt;&#x9;&lt;/span&gt;Create Pull Request&amp;nbsp;&lt;/div&gt;" style="triangle;whiteSpace=wrap;html=1;fillColor=#6d8764;fontColor=#ffffff;strokeColor=#3A5431;align=left;" vertex="1" parent="WIyWlLk6GJQsqaUBKTNV-1">
          <mxGeometry x="2010" y="116.25" width="200" height="170" as="geometry" />
        </mxCell>
        <mxCell id="bAVuv0y_ngJYr-Cw_Y14-72" style="edgeStyle=orthogonalEdgeStyle;rounded=0;orthogonalLoop=1;jettySize=auto;html=1;exitX=1;exitY=0.5;exitDx=0;exitDy=0;entryX=0;entryY=0.5;entryDx=0;entryDy=0;" edge="1" parent="WIyWlLk6GJQsqaUBKTNV-1" source="bAVuv0y_ngJYr-Cw_Y14-39" target="bAVuv0y_ngJYr-Cw_Y14-41">
          <mxGeometry relative="1" as="geometry" />
        </mxCell>
        <mxCell id="bAVuv0y_ngJYr-Cw_Y14-73" value="YES" style="edgeLabel;html=1;align=center;verticalAlign=middle;resizable=0;points=[];" vertex="1" connectable="0" parent="bAVuv0y_ngJYr-Cw_Y14-72">
          <mxGeometry x="-0.0308" y="4" relative="1" as="geometry">
            <mxPoint as="offset" />
          </mxGeometry>
        </mxCell>
        <mxCell id="bAVuv0y_ngJYr-Cw_Y14-39" value="Have you reviewed the changes?" style="ellipse;whiteSpace=wrap;html=1;aspect=fixed;fillColor=#e51400;fontColor=#ffffff;strokeColor=#B20000;" vertex="1" parent="WIyWlLk6GJQsqaUBKTNV-1">
          <mxGeometry x="2290" y="161.25" width="80" height="80" as="geometry" />
        </mxCell>
        <mxCell id="bAVuv0y_ngJYr-Cw_Y14-74" style="edgeStyle=orthogonalEdgeStyle;rounded=0;orthogonalLoop=1;jettySize=auto;html=1;exitX=1;exitY=0.5;exitDx=0;exitDy=0;" edge="1" parent="WIyWlLk6GJQsqaUBKTNV-1" source="bAVuv0y_ngJYr-Cw_Y14-41">
          <mxGeometry relative="1" as="geometry">
            <mxPoint x="2710" y="201.14285714285722" as="targetPoint" />
          </mxGeometry>
        </mxCell>
        <mxCell id="bAVuv0y_ngJYr-Cw_Y14-75" value="YES" style="edgeLabel;html=1;align=center;verticalAlign=middle;resizable=0;points=[];" vertex="1" connectable="0" parent="bAVuv0y_ngJYr-Cw_Y14-74">
          <mxGeometry x="-0.0329" relative="1" as="geometry">
            <mxPoint as="offset" />
          </mxGeometry>
        </mxCell>
        <mxCell id="bAVuv0y_ngJYr-Cw_Y14-41" value="Are you satisfied with the changes?" style="ellipse;whiteSpace=wrap;html=1;fillColor=#e51400;fontColor=#ffffff;strokeColor=#B20000;" vertex="1" parent="WIyWlLk6GJQsqaUBKTNV-1">
          <mxGeometry x="2500" y="161.25" width="80" height="80" as="geometry" />
        </mxCell>
        <mxCell id="bAVuv0y_ngJYr-Cw_Y14-76" style="edgeStyle=orthogonalEdgeStyle;rounded=0;orthogonalLoop=1;jettySize=auto;html=1;exitX=1;exitY=0.5;exitDx=0;exitDy=0;entryX=0.5;entryY=0;entryDx=0;entryDy=0;" edge="1" parent="WIyWlLk6GJQsqaUBKTNV-1" source="bAVuv0y_ngJYr-Cw_Y14-43" target="WIyWlLk6GJQsqaUBKTNV-7">
          <mxGeometry relative="1" as="geometry">
            <Array as="points">
              <mxPoint x="2950" y="196" />
              <mxPoint x="2950" y="10" />
              <mxPoint x="490" y="10" />
            </Array>
          </mxGeometry>
        </mxCell>
        <mxCell id="bAVuv0y_ngJYr-Cw_Y14-43" value="&lt;span style=&quot;white-space: pre;&quot;&gt;&#x9;&lt;/span&gt;Merge to Dev Branch&lt;div&gt;&lt;span style=&quot;white-space: pre;&quot;&gt;&#x9;&lt;/span&gt;Leave a comment on GitHub&lt;/div&gt;" style="triangle;whiteSpace=wrap;html=1;fillColor=#6d8764;fontColor=#ffffff;strokeColor=#3A5431;align=left;" vertex="1" parent="WIyWlLk6GJQsqaUBKTNV-1">
          <mxGeometry x="2720" y="111.25" width="210" height="170" as="geometry" />
        </mxCell>
        <mxCell id="bAVuv0y_ngJYr-Cw_Y14-67" style="edgeStyle=orthogonalEdgeStyle;rounded=0;orthogonalLoop=1;jettySize=auto;html=1;exitX=1;exitY=0.5;exitDx=0;exitDy=0;" edge="1" parent="WIyWlLk6GJQsqaUBKTNV-1" source="bAVuv0y_ngJYr-Cw_Y14-55">
          <mxGeometry relative="1" as="geometry">
            <mxPoint x="1459.9999999999995" y="201.14285714285722" as="targetPoint" />
          </mxGeometry>
        </mxCell>
        <mxCell id="bAVuv0y_ngJYr-Cw_Y14-55" value="&lt;span style=&quot;white-space: pre;&quot;&gt;&#x9;&lt;/span&gt;Write New Code&amp;nbsp;&lt;div&gt;&lt;span style=&quot;white-space: pre;&quot;&gt;&#x9;&lt;/span&gt;Save&lt;/div&gt;" style="triangle;whiteSpace=wrap;html=1;fillColor=#6d8764;fontColor=#ffffff;strokeColor=#3A5431;align=left;" vertex="1" parent="WIyWlLk6GJQsqaUBKTNV-1">
          <mxGeometry x="1183" y="111.25" width="220" height="180" as="geometry" />
        </mxCell>
        <mxCell id="bAVuv0y_ngJYr-Cw_Y14-87" style="edgeStyle=orthogonalEdgeStyle;rounded=0;orthogonalLoop=1;jettySize=auto;html=1;exitX=0;exitY=0.5;exitDx=0;exitDy=0;" edge="1" parent="WIyWlLk6GJQsqaUBKTNV-1" source="bAVuv0y_ngJYr-Cw_Y14-56">
          <mxGeometry relative="1" as="geometry">
            <mxPoint x="-20" y="290" as="targetPoint" />
          </mxGeometry>
        </mxCell>
        <mxCell id="bAVuv0y_ngJYr-Cw_Y14-56" value="Merge to Main Branch" style="triangle;whiteSpace=wrap;html=1;fillColor=#6d8764;fontColor=#ffffff;strokeColor=#3A5431;align=left;" vertex="1" parent="WIyWlLk6GJQsqaUBKTNV-1">
          <mxGeometry x="180" y="700" width="220" height="180" as="geometry" />
        </mxCell>
        <mxCell id="bAVuv0y_ngJYr-Cw_Y14-86" style="edgeStyle=orthogonalEdgeStyle;rounded=0;orthogonalLoop=1;jettySize=auto;html=1;exitX=1;exitY=0.5;exitDx=0;exitDy=0;" edge="1" parent="WIyWlLk6GJQsqaUBKTNV-1" source="bAVuv0y_ngJYr-Cw_Y14-58">
          <mxGeometry relative="1" as="geometry">
            <mxPoint x="799.9999999999995" y="330" as="targetPoint" />
          </mxGeometry>
        </mxCell>
        <mxCell id="bAVuv0y_ngJYr-Cw_Y14-58" value="&lt;span style=&quot;white-space: pre;&quot;&gt;&#x9;&lt;/span&gt;Check the Branches&lt;div&gt;&lt;span style=&quot;white-space: pre;&quot;&gt;&#x9;&lt;/span&gt;Retest&lt;/div&gt;" style="triangle;whiteSpace=wrap;html=1;fillColor=#6d8764;fontColor=#ffffff;strokeColor=#3A5431;align=left;" vertex="1" parent="WIyWlLk6GJQsqaUBKTNV-1">
          <mxGeometry x="520" y="700" width="220" height="180" as="geometry" />
        </mxCell>
        <mxCell id="bAVuv0y_ngJYr-Cw_Y14-82" style="edgeStyle=orthogonalEdgeStyle;rounded=0;orthogonalLoop=1;jettySize=auto;html=1;exitX=0.5;exitY=1;exitDx=0;exitDy=0;entryX=0.318;entryY=0.111;entryDx=0;entryDy=0;entryPerimeter=0;" edge="1" parent="WIyWlLk6GJQsqaUBKTNV-1" source="bAVuv0y_ngJYr-Cw_Y14-4" target="bAVuv0y_ngJYr-Cw_Y14-56">
          <mxGeometry relative="1" as="geometry" />
        </mxCell>
        <mxCell id="bAVuv0y_ngJYr-Cw_Y14-83" value="YES" style="edgeLabel;html=1;align=center;verticalAlign=middle;resizable=0;points=[];" vertex="1" connectable="0" parent="bAVuv0y_ngJYr-Cw_Y14-82">
          <mxGeometry x="-0.0494" y="2" relative="1" as="geometry">
            <mxPoint x="-1" as="offset" />
          </mxGeometry>
        </mxCell>
      </root>
    </mxGraphModel>
  </diagram>
</mxfile>
